<svg xmlns="http://www.w3.org/2000/svg" xmlns:xlink="http://www.w3.org/1999/xlink" width="18.00048828125" height="23.00146484375" viewBox="0 0 18.00048828125 23.00146484375" fill="none"><path id="分组 1" fill-rule="evenodd" style="fill:#FF6B38" opacity="1" d="M18.0006,8.85148c0,1.79002 -0.54,3.44002 -1.45,4.83002l-6.74002,8.83c-0.15,0.3 -0.47,0.49 -0.81,0.49c-0.34,0 -0.65,-0.19 -0.81,-0.49l-6.73,-8.83c-2.1,-3.16 -1.92,-7.29002 0.44,-10.27002c2.36,-2.98 6.39,-4.16 10.02002,-2.93c3.64,1.23 6.08,4.59 6.08,8.37zM13.108,8.84496c0,-2.22 -1.84,-4.03 -4.10996,-4.03c-2.26,0 -4.1,1.81 -4.1,4.03c0,2.23004 1.84,4.04004 4.1,4.04004c2.26996,0 4.10996,-1.81 4.10996,-4.04004z"></path></svg>