<svg xmlns="http://www.w3.org/2000/svg" xmlns:xlink="http://www.w3.org/1999/xlink" width="43.0008544921875" height="40.1337890625" viewBox="0 0 43.0008544921875 40.1337890625" fill="none"><path id="并集" fill-rule="evenodd" style="fill:#FF6B38" opacity="1" d="M22.1821,6.56h5.0317l4.814,-4.92284c0.67,-0.69 1.41,-1.03 2.2,-1.05c0.8,-0.01 1.54,0.32 2.21,1l5.0672,5.1897c0.0981,0.03377 0.1898,0.07148 0.275,0.11314c0.45,0.22 0.77,0.5 0.96,0.82c0.19,0.33 0.27,0.68 0.26,1.05c-0.02,0.37 -0.07,0.69 -0.15,0.96c-0.09,0.27 -0.28,0.82 -0.57,1.65c-0.29,0.83 -0.6,1.75 -0.94,2.74c-0.33,1 -0.67,1.99 -1,2.97c-0.33,0.98 -0.6,1.75 -0.81,2.32c-0.37,1.19 -0.85,2.01 -1.41,2.47c-0.57,0.46 -1.27,0.69 -2.12,0.69h-22.88l0.61,4.02h22.01c1.4,0 2.09,0.61 2.09,1.83c0,0.59 -0.13,1.1 -0.41,1.53c-0.28,0.43 -0.82,0.65 -1.64,0.65h-22.83c-0.59,0 -1.07,-0.13 -1.46,-0.4c-0.4,-0.27 -0.72,-0.62 -0.99,-1.05c-0.26,-0.43 -0.47,-0.9 -0.63,-1.4c-0.16,-0.51 -0.28,-0.98 -0.37,-1.43c-0.03,-0.18 -0.11,-0.61 -0.24,-1.29c-0.13,-0.69 -0.29,-1.54 -0.48,-2.57c-0.19,-1.02 -0.4,-2.17 -0.63,-3.43c-0.23,-1.26 -0.46,-2.54 -0.7,-3.81c-0.55,-3.01 -1.17,-6.35 -1.87,-10.04h-3.27c-0.44,0 -0.8,-0.11 -1.09,-0.33c-0.29,-0.22 -0.53,-0.49 -0.72,-0.8c-0.19,-0.32 -0.32,-0.65 -0.39,-1.01c-0.07,-0.35 -0.11,-0.68 -0.11,-0.98c0,-0.59 0.2,-1.08 0.59,-1.47c0.39,-0.39 0.92,-0.58 1.59,-0.58h4.4c0.58,0 1.05,0.09 1.4,0.27c0.35,0.18 0.62,0.4 0.82,0.67c0.21,0.26 0.35,0.55 0.44,0.84c0.09,0.3 0.16,0.55 0.22,0.76c0.06,0.24 0.11,0.57 0.17,1.01c0.0582,0.41711 0.1164,0.83423 0.17461,1.2696l3.11209,-3.18244c0.67,-0.69 1.41,-1.03 2.2,-1.05c0.8,-0.01 1.54,0.32 2.21,1zM17.2801,32.9747c0.37,0.37 0.66,0.81 0.87,1.32c0.22,0.5 0.33,1.04 0.33,1.6c0,0.57 -0.11,1.1 -0.33,1.61c-0.21,0.5 -0.5,0.94 -0.87,1.31c-0.36,0.37 -0.79,0.67 -1.28,0.9c-0.5,0.22 -1.02,0.33 -1.57,0.33c-0.58,0 -1.12,-0.11 -1.62,-0.33c-0.49,-0.23 -0.92,-0.53 -1.28,-0.9c-0.36,-0.37 -0.66,-0.81 -0.87,-1.31c-0.22,-0.51 -0.33,-1.04 -0.33,-1.61c0,-0.56 0.11,-1.1 0.33,-1.6c0.21,-0.51 0.51,-0.95 0.87,-1.32c0.36,-0.37 0.79,-0.66 1.28,-0.87c0.5,-0.21 1.04,-0.31 1.62,-0.31c0.55,0 1.07,0.1 1.57,0.31c0.49,0.21 0.92,0.5 1.28,0.87zM30.9858,39.8038c-0.49,-0.23 -0.92,-0.53 -1.28,-0.9c-0.36,-0.37 -0.66,-0.81 -0.87,-1.31c-0.22,-0.51 -0.33,-1.04 -0.33,-1.61c0,-0.56 0.11,-1.1 0.33,-1.6c0.21,-0.51 0.51,-0.95 0.87,-1.32c0.36,-0.37 0.79,-0.66 1.28,-0.87c0.5,-0.21 1.02,-0.31 1.57,-0.31c0.56,0 1.09,0.1 1.59,0.31c0.51,0.21 0.95,0.5 1.31,0.87c0.37,0.37 0.66,0.81 0.87,1.32c0.22,0.5 0.33,1.04 0.33,1.6c0,0.57 -0.11,1.1 -0.33,1.61c-0.21,0.5 -0.5,0.94 -0.87,1.31c-0.36,0.37 -0.8,0.67 -1.31,0.9c-0.5,0.22 -1.03,0.33 -1.59,0.33c-0.55,0 -1.07,-0.11 -1.57,-0.33z"></path></svg>